<?xml version="1.0" encoding="UTF-8"?>
<svg version="1.1" xmlns="http://www.w3.org/2000/svg" width="489" height="278">
<path d="M0 0 C161.37 0 322.74 0 489 0 C489 91.74 489 183.48 489 278 C327.63 278 166.26 278 0 278 C0 186.26 0 94.52 0 0 Z " fill="#FEFEFE" transform="translate(0,0)"/>
<path d="M0 0 C24 0 24 0 30 4 C33.70148498 8.18852248 34.5988695 11.39754117 34.31640625 16.828125 C33.54227832 22.14189201 30.97668996 25.61297856 26.85888672 28.96142578 C23.31207272 30.94305787 19.57456434 30.51562251 15.625 30.3125 C11.355625 30.1578125 11.355625 30.1578125 7 30 C7 36.6 7 43.2 7 50 C4.69 50 2.38 50 0 50 C0 33.5 0 17 0 0 Z " fill="#1B1B1B" transform="translate(290,183)"/>
<path d="M0 0 C24 0 24 0 30 4 C33.70148498 8.18852248 34.5988695 11.39754117 34.31640625 16.828125 C33.54227832 22.14189201 30.97668996 25.61297856 26.85888672 28.96142578 C23.31207272 30.94305787 19.57456434 30.51562251 15.625 30.3125 C11.355625 30.1578125 11.355625 30.1578125 7 30 C7 36.6 7 43.2 7 50 C4.69 50 2.38 50 0 50 C0 33.5 0 17 0 0 Z " fill="#1B1B1B" transform="translate(86,183)"/>
<path d="M0 0 C3.386039 3.12557446 5.77289747 5.59778228 6.4375 10.25 C6.4375 12.56 6.4375 14.87 6.4375 17.25 C-2.4725 17.25 -11.3825 17.25 -20.5625 17.25 C-18.4606412 24.79560839 -18.4606412 24.79560839 -15.25 27.25 C-11.09388686 28.7964607 -7.98256522 28.66024106 -3.75 27.4375 C-1.23048742 26.39210205 -1.23048742 26.39210205 -0.5625 23.25 C1.4175 23.25 3.3975 23.25 5.4375 23.25 C4.95696314 27.57483175 3.77968019 29.48076498 0.4375 32.25 C-4.52036909 35.29679621 -9.93967133 34.82481079 -15.5625 34.25 C-19.83696126 33.05041762 -22.67196618 30.62885385 -25 26.875 C-27.56230927 20.97392411 -27.30201923 14.53210149 -26.5625 8.25 C-24.66187768 3.84055621 -22.07798689 1.16805806 -17.75390625 -1.0546875 C-11.75452989 -2.95823294 -5.61460503 -2.75805159 0 0 Z " fill="#171717" transform="translate(153.5625,198.75)"/>
<path d="M0 0 C3.77640926 1.45025603 5.75160547 3.62740821 8 7 C8.27124023 9.32836914 8.27124023 9.32836914 8.30859375 12.03515625 C8.33373047 13.00904297 8.35886719 13.98292969 8.38476562 14.98632812 C8.41998774 17.04095137 8.45122301 19.09564675 8.47851562 21.15039062 C8.50494141 22.12298828 8.53136719 23.09558594 8.55859375 24.09765625 C8.57204834 24.98976807 8.58550293 25.88187988 8.59936523 26.80102539 C8.79767944 27.88951782 8.79767944 27.88951782 9 29 C9.99 29.66 10.98 30.32 12 31 C12.1875 33.625 12.1875 33.625 12 36 C6.46153846 36.36923077 6.46153846 36.36923077 4.125 34.5 C3.75375 34.005 3.3825 33.51 3 33 C2.236875 33.309375 1.47375 33.61875 0.6875 33.9375 C-4.67735083 36.05848754 -9.25522159 36.77755759 -15 36 C-18.125 34.0625 -18.125 34.0625 -20 31 C-20.74409976 27.81017701 -20.76641482 25.18758891 -20 22 C-15.25872988 15.53463165 -6.44130153 14.69464755 1 13 C0.42547254 9.06924356 0.42547254 9.06924356 -2 6 C-6.05527082 5.53542544 -6.05527082 5.53542544 -10 6 C-12.5404226 8.33830958 -12.5404226 8.33830958 -14 11 C-16.97 10.505 -16.97 10.505 -20 10 C-18.68745073 6.0623522 -17.1247232 3.7341328 -14 1 C-9.82078179 -1.0896091 -4.55090618 -0.43964368 0 0 Z " fill="#191919" transform="translate(351,197)"/>
<path d="M0 0 C2.31 0 4.62 0 7 0 C16 19.45810056 16 19.45810056 16 25 C16.66 25 17.32 25 18 25 C18.23783203 24.16082031 18.23783203 24.16082031 18.48046875 23.3046875 C24.54875283 2.45124717 24.54875283 2.45124717 27 0 C29.33297433 -0.04092937 31.66705225 -0.04241723 34 0 C31.90591832 6.53230685 29.52761718 12.91405055 26.98828125 19.28515625 C26.61519333 20.22685165 26.24210541 21.16854706 25.85771179 22.13877869 C24.67825966 25.11426499 23.49543885 28.0883984 22.3125 31.0625 C21.50693744 33.0930101 20.70159674 35.12360823 19.89648438 37.15429688 C17.93355261 42.10388493 15.96786143 47.05236996 14 52 C11.69 52 9.38 52 7 52 C7.74721544 47.52465645 9.3283424 43.87146934 11.2578125 39.79296875 C13.5542641 31.15105877 8.75429722 22.90974254 5.4375 15.125 C4.41050608 12.69209664 3.39019841 10.25654697 2.37109375 7.8203125 C1.91661865 6.75055176 1.46214355 5.68079102 0.99389648 4.57861328 C0 2 0 2 0 0 Z " fill="#1C1C1C" transform="translate(247,197)"/>
<path d="M0 0 C1.98 0 3.96 0 6 0 C6 1.32 6 2.64 6 4 C6.804375 3.34 7.60875 2.68 8.4375 2 C12.45704031 -0.67651855 16.31531923 -0.71872182 21 0 C24.75116065 1.63093941 26.90597266 3.50638752 29 7 C29.34057617 10.11621094 29.34057617 10.11621094 29.29296875 13.734375 C29.28330078 15.02988281 29.27363281 16.32539063 29.26367188 17.66015625 C29.23860783 19.02344354 29.21321302 20.38672479 29.1875 21.75 C29.17244518 23.12889184 29.15875817 24.50779935 29.14648438 25.88671875 C29.11111909 29.25820915 29.06175904 32.62890654 29 36 C26.69 36 24.38 36 22 36 C21.98018066 35.19256348 21.96036133 34.38512695 21.93994141 33.55322266 C21.84494101 29.91014125 21.73516088 26.26765314 21.625 22.625 C21.5940625 21.35398438 21.563125 20.08296875 21.53125 18.7734375 C21.49257812 17.56171875 21.45390625 16.35 21.4140625 15.1015625 C21.3826416 13.98088379 21.3512207 12.86020508 21.31884766 11.70556641 C21.26588797 8.85289588 21.26588797 8.85289588 19 7 C13.90438868 6.33670205 13.90438868 6.33670205 9.40649414 8.16479492 C7.45368179 10.71284048 7.5850642 12.53850832 7.5234375 15.7265625 C7.4925 16.8403125 7.4615625 17.9540625 7.4296875 19.1015625 C7.41164062 20.26429688 7.39359375 21.42703125 7.375 22.625 C7.32423398 24.92977721 7.26975523 27.23447671 7.2109375 29.5390625 C7.19337402 30.56209473 7.17581055 31.58512695 7.15771484 32.63916016 C7 35 7 35 6 36 C4.02 36 2.04 36 0 36 C0 24.12 0 12.24 0 0 Z " fill="#202020" transform="translate(170,197)"/>
<path d="M0 0 C2.31 0 4.62 0 7 0 C7.33 0.99 7.66 1.98 8 3 C8.474375 2.505 8.94875 2.01 9.4375 1.5 C13.23998197 -0.7258431 16.69332867 -0.55979263 21 0 C25.06662662 1.55271198 26.57519602 2.36279402 29 6 C29.22705078 9.09448242 29.22705078 9.09448242 29.1953125 12.85546875 C29.1924826 13.51710526 29.18965271 14.17874176 29.18673706 14.86042786 C29.17555918 16.96963737 29.15045981 19.07841925 29.125 21.1875 C29.11496707 22.61913448 29.10584176 24.05077564 29.09765625 25.48242188 C29.07562795 28.98841977 29.04111485 32.49416813 29 36 C27.02 36 25.04 36 23 36 C22.97494385 35.26362305 22.9498877 34.52724609 22.92407227 33.76855469 C22.80795727 30.42886622 22.68530082 27.08944903 22.5625 23.75 C22.52318359 22.59113281 22.48386719 21.43226563 22.44335938 20.23828125 C22.40146484 19.12324219 22.35957031 18.00820312 22.31640625 16.859375 C22.27974854 15.83295898 22.24309082 14.80654297 22.20532227 13.74902344 C22.02717872 11.36389113 21.67222637 9.28700501 21 7 C19.39667209 6.91878076 17.79215974 6.86070866 16.1875 6.8125 C14.84751953 6.76029297 14.84751953 6.76029297 13.48046875 6.70703125 C11.01148822 6.79892099 11.01148822 6.79892099 9.37695312 8.14453125 C7.43322685 10.76373687 7.56729168 12.74104125 7.48828125 15.98046875 C7.45283203 17.14384766 7.41738281 18.30722656 7.38085938 19.50585938 C7.35830078 20.72080078 7.33574219 21.93574219 7.3125 23.1875 C7.27833984 24.41404297 7.24417969 25.64058594 7.20898438 26.90429688 C7.1264059 29.93610678 7.05728631 32.96762379 7 36 C4.69 36 2.38 36 0 36 C0 24.12 0 12.24 0 0 Z " fill="#1C1C1C" transform="translate(211,197)"/>
<path d="M0 0 C2.31 0 4.62 0 7 0 C7 18.15 7 36.3 7 55 C4.69 55 2.38 55 0 55 C0 36.85 0 18.7 0 0 Z " fill="#1F1F1F" transform="translate(372,178)"/>
<path d="M0 0 C2.371875 -0.103125 4.74375 -0.20625 7.1875 -0.3125 C7.92508545 -0.35802002 8.6626709 -0.40354004 9.42260742 -0.45043945 C13.27036957 -0.53098005 14.88216851 -0.0902804 17.95703125 2.265625 C20.9955681 6.33250033 20.63064706 8.03365437 20 13 C18.25746655 16.23613354 17.52814056 16.82395315 14 18 C9.33032246 18.13590447 4.67262015 18.04286807 0 18 C0 12.06 0 6.12 0 0 Z " fill="#FCFCFC" transform="translate(297,189)"/>
<path d="M0 0 C2.371875 -0.103125 4.74375 -0.20625 7.1875 -0.3125 C7.92508545 -0.35802002 8.6626709 -0.40354004 9.42260742 -0.45043945 C13.27036957 -0.53098005 14.88216851 -0.0902804 17.95703125 2.265625 C20.9955681 6.33250033 20.63064706 8.03365437 20 13 C18.25746655 16.23613354 17.52814056 16.82395315 14 18 C9.33032246 18.13590447 4.67262015 18.04286807 0 18 C0 12.06 0 6.12 0 0 Z " fill="#FCFCFC" transform="translate(93,189)"/>
<path d="M0 0 C3.06458538 2.04305692 3.82153128 3.44079802 4.9375 6.9375 C5.01221891 10.59872681 4.21363944 12.1304674 2 15 C-1.21804148 16.60902074 -4.51947705 16.59842983 -8 16 C-11.2883921 13.28707652 -11.90851499 11.65183071 -12.5 7.4375 C-12 4 -12 4 -10.5 1.5625 C-6.98401025 -0.63499359 -4.04059653 -0.81309745 0 0 Z " fill="#191919" transform="translate(284,84)"/>
<path d="M0 0 C2.5 2.125 2.5 2.125 4 5 C4.07481382 9.26438773 3.64839572 11.23718151 0.875 14.5 C-2.97148295 16.50686067 -4.88546541 16.27176524 -9 15 C-11.92212377 12.37758123 -12.86731137 10.81271786 -13.5 6.9375 C-12.88967138 3.35181933 -11.80986461 2.23136307 -9 0 C-5.77839187 -1.61080407 -3.42436421 -0.82657067 0 0 Z " fill="#1A1A1A" transform="translate(225,48)"/>
<path d="M0 0 C2.88247576 2.34201156 2.97497895 3.79983163 3.4375 7.5 C3 11 3 11 1.375 13.375 C-1.56278062 15.38506043 -3.4396496 15.92733979 -7 16 C-11.56521739 13.86956522 -11.56521739 13.86956522 -13 11 C-13.68878924 3.88251121 -13.68878924 3.88251121 -11 0.4375 C-7.02195217 -1.46864792 -4.15933601 -1.38644534 0 0 Z " fill="#191919" transform="translate(189,107)"/>
<path d="M0 0 C2.9375 1.5625 2.9375 1.5625 5 4 C5.625 7.4375 5.625 7.4375 5 11 C2.9375 13.9375 2.9375 13.9375 0 16 C-3.95779649 16.62491523 -6.00863886 16.61006839 -9.4375 14.5 C-11.63828902 10.97873756 -11.80414661 8.04560357 -11 4 C-8.1553332 -0.55146687 -5.11689336 -0.71816047 0 0 Z " fill="#161616" transform="translate(247,143)"/>
<path d="M0 0 C3.4375 1 3.4375 1 5.4375 2.6875 C6.82656225 5.89970645 6.49271374 7.6936636 5.4375 11 C3.75 12.9375 3.75 12.9375 1.4375 14 C-1.70391856 13.87177883 -3.77367432 13.4995896 -6.4375 11.8125 C-8.14808918 9.05655076 -8.01589217 7.17374516 -7.5625 4 C-5.27647022 0.43379354 -4.27192374 0 0 0 Z " fill="#1F1F1F" transform="translate(276.5625,105)"/>
<path d="M0 0 C2.3125 1.625 2.3125 1.625 4 4 C4.61195145 7.6717087 4.48706506 9.28813568 2.375 12.375 C-0.67785921 14.46379841 -2.36968224 14.54068562 -6 14 C-7.875 13 -7.875 13 -9 11 C-9.46523509 8.24305131 -9.51601948 5.75210391 -9 3 C-6.40390408 -0.07685443 -3.9263577 -0.6871126 0 0 Z " fill="#1B1B1B" transform="translate(191,87)"/>
<path d="M0 0 C3.03247414 2.13092777 3.87637987 3.34069266 4.5625 7 C4 10 4 10 1.875 12.4375 C-1 14 -1 14 -4.1875 13.875 C-7 13 -7 13 -9 11 C-9.27922749 8.06811139 -9.47143881 5.84609353 -9 3 C-6.40390408 -0.07685443 -3.9263577 -0.6871126 0 0 Z " fill="#1B1B1B" transform="translate(191,127)"/>
<path d="M0 0 C1.9375 1.0625 1.9375 1.0625 3 3 C3.36528977 6.4093712 3.6140629 8.88023824 1.9375 11.9375 C-1.11976176 13.6140629 -3.5906288 13.36528977 -7 13 C-8.9375 11.9375 -8.9375 11.9375 -10 10 C-10.36528977 6.5906288 -10.6140629 4.11976176 -8.9375 1.0625 C-5.88023824 -0.6140629 -3.4093712 -0.36528977 0 0 Z " fill="#181818" transform="translate(227,140)"/>
<path d="M0 0 C2.78506308 1.97886061 3.81084752 3.15932233 4.5625 6.5 C4 9 4 9 1.8125 11.3125 C-1.24927572 13.14956543 -2.5195571 13.713937 -6 13 C-8.375 11.4375 -8.375 11.4375 -10 9 C-9.9375 5.375 -9.9375 5.375 -9 2 C-5.50875983 -0.32749345 -4.10777749 -0.50299316 0 0 Z " fill="#191919" transform="translate(279,66)"/>
<path d="M0 0 C3 0.5625 3 0.5625 5.4375 2.75 C7 5.5625 7 5.5625 6.9375 8.1875 C5.89215986 10.83569502 5.41288502 12.03433949 3 13.5625 C-0.5 14 -0.5 14 -4 13.5625 C-6.38460953 11.48558202 -6.8959746 10.15693084 -7.4375 7.0625 C-6.64602694 2.53979681 -4.41632799 0.8280615 0 0 Z " fill="#1A1A1A" transform="translate(201,52.4375)"/>
<path d="M0 0 C2.375 1.0625 2.375 1.0625 4 3 C4.43060657 6.44485259 4.63335287 8.84506242 2.9375 11.9375 C-0.11976176 13.6140629 -2.5906288 13.36528977 -6 13 C-7.9375 11.9375 -7.9375 11.9375 -9 10 C-9.63316583 4.09045226 -9.63316583 4.09045226 -7.875 1.0625 C-5.09808875 -0.51108304 -3.13770673 -0.38420899 0 0 Z " fill="#181818" transform="translate(266,140)"/>
<path d="M0 0 C3 2.25 3 2.25 5 5 C5 6.32 5 7.64 5 9 C-1.27 9 -7.54 9 -14 9 C-13 4 -13 4 -10.9375 1.6875 C-7.16502924 -0.47966405 -4.2546722 -1.00362227 0 0 Z " fill="#F7F7F7" transform="translate(148,202)"/>
<path d="M0 0 C3.375 0.875 3.375 0.875 5.375 2.875 C5.92087156 8.87958716 5.92087156 8.87958716 4.3125 11.8125 C1.25523824 13.4890629 -1.2156288 13.24028977 -4.625 12.875 C-6.5625 11.75 -6.5625 11.75 -7.625 9.875 C-8.16352618 6.25918138 -8.04736225 4.53388511 -6.0625 1.4375 C-3.625 -0.125 -3.625 -0.125 0 0 Z " fill="#171717" transform="translate(241.625,53.125)"/>
<path d="M0 0 C-0.27998092 3.63975198 -0.53489343 6.29303801 -2.5625 9.375 C-6.1523576 11.7682384 -8.67547332 11.93135672 -13 12 C-15.0625 10.875 -15.0625 10.875 -16 9 C-15.875 6.4375 -15.875 6.4375 -15 4 C-12.3851183 2.25674553 -10.9946567 1.58412043 -8.0625 0.875 C-7.39347656 0.70742187 -6.72445313 0.53984375 -6.03515625 0.3671875 C-4 0 -4 0 0 0 Z " fill="#F3F3F3" transform="translate(353,216)"/>
<path d="M0 0 C5.56818182 0.56818182 5.56818182 0.56818182 7 2 C7.25 4.9375 7.25 4.9375 7 8 C4 10 4 10 1.375 9.6875 C-1 9 -1 9 -2 8 C-2.1875 5.0625 -2.1875 5.0625 -2 2 C-1.34 1.34 -0.68 0.68 0 0 Z " fill="#232323" transform="translate(207,131)"/>
<path d="M0 0 C3.125 0.375 3.125 0.375 6 1 C7.32841008 6.43440487 7.32841008 6.43440487 5.875 8.9375 C4 10 4 10 1.375 9.75 C-1 9 -1 9 -2 8 C-2.1875 5.0625 -2.1875 5.0625 -2 2 C-1.34 1.34 -0.68 0.68 0 0 Z " fill="#202020" transform="translate(263,53)"/>
<path d="M0 0 C1.010625 0.0825 2.02125 0.165 3.0625 0.25 C5.0625 3.25 5.0625 3.25 4.8125 5.3125 C4.0625 7.25 4.0625 7.25 2.0625 9.25 C-0.4375 9.5625 -0.4375 9.5625 -2.9375 9.25 C-4.9375 6.25 -4.9375 6.25 -4.625 3.625 C-3.63837192 0.21664846 -3.64560971 0.31026466 0 0 Z " fill="#1F1F1F" transform="translate(198.9375,143.75)"/>
<path d="M0 0 C2.375 0.75 2.375 0.75 3.375 1.75 C3.5625 4.6875 3.5625 4.6875 3.375 7.75 C2.715 8.41 2.055 9.07 1.375 9.75 C-1.75 9.375 -1.75 9.375 -4.625 8.75 C-5.95341008 3.31559513 -5.95341008 3.31559513 -4.5 0.8125 C-2.625 -0.25 -2.625 -0.25 0 0 Z " fill="#1E1E1E" transform="translate(278.625,131.25)"/>
<path d="M0 0 C4.55555556 0.55555556 4.55555556 0.55555556 6 2 C6.1875 4.9375 6.1875 4.9375 6 8 C5.34 8.66 4.68 9.32 4 10 C0.70285207 9.67028521 -0.6226839 9.3773161 -3 7 C-2.67028521 3.70285207 -2.3773161 2.3773161 0 0 Z " fill="#1E1E1E" transform="translate(197,75)"/>
<path d="M0 0 C3.0625 0.1875 3.0625 0.1875 5.0625 2.1875 C5.3125 4.6875 5.3125 4.6875 5.0625 7.1875 C3.0625 9.1875 3.0625 9.1875 0.5625 9.4375 C-1.9375 9.1875 -1.9375 9.1875 -3.9375 7.1875 C-4.125 4.125 -4.125 4.125 -3.9375 1.1875 C-2.9375 0.1875 -2.9375 0.1875 0 0 Z " fill="#1A1A1A" transform="translate(264.9375,121.8125)"/>
<path d="M0 0 C3 0.125 3 0.125 4 1.125 C4.1875 4.0625 4.1875 4.0625 4 7.125 C2 9.125 2 9.125 -0.5 9.4375 C-1.7375 9.2828125 -1.7375 9.2828125 -3 9.125 C-5 6.125 -5 6.125 -4.6875 3.5 C-3.68897505 0.05055016 -3.71397355 0.1547489 0 0 Z " fill="#191919" transform="translate(255,65.875)"/>
<path d="M0 0 C2.5 0.25 2.5 0.25 4.5 2.25 C4.75 4.75 4.75 4.75 4.5 7.25 C2.5 9.25 2.5 9.25 0 9.5 C-2.5 9.25 -2.5 9.25 -4.5 7.25 C-4.75 4.75 -4.75 4.75 -4.5 2.25 C-2.5 0.25 -2.5 0.25 0 0 Z " fill="#161616" transform="translate(186.5,65.75)"/>
<path d="M0 0 C2.0625 0.4375 2.0625 0.4375 4 1 C4 2.32 4 3.64 4 5 C2.68 5.33 1.36 5.66 0 6 C-0.38218767 4.34385343 -0.71395102 2.67542976 -1 1 C-0.67 0.67 -0.34 0.34 0 0 Z " fill="#303030" transform="translate(284,121)"/>
<path d="M0 0 C2.0625 0.4375 2.0625 0.4375 4 1 C4 2.32 4 3.64 4 5 C2.68 5.33 1.36 5.66 0 6 C-0.38218767 4.34385343 -0.71395102 2.67542976 -1 1 C-0.67 0.67 -0.34 0.34 0 0 Z " fill="#323232" transform="translate(200,121)"/>
<path d="M0 0 C1.98 0.495 1.98 0.495 4 1 C3.67 2.65 3.34 4.3 3 6 C1.68 5.67 0.36 5.34 -1 5 C-0.67 3.35 -0.34 1.7 0 0 Z " fill="#262626" transform="translate(252,131)"/>
<path d="M0 0 C1.98 0.495 1.98 0.495 4 1 C3.67 2.65 3.34 4.3 3 6 C1.68 5.67 0.36 5.34 -1 5 C-0.67 3.35 -0.34 1.7 0 0 Z " fill="#272727" transform="translate(261,79)"/>
<path d="M0 0 C1.98 0.495 1.98 0.495 4 1 C3.67 2.65 3.34 4.3 3 6 C1.68 5.67 0.36 5.34 -1 5 C-0.67 3.35 -0.34 1.7 0 0 Z " fill="#262626" transform="translate(177,79)"/>
<path d="M0 0 C1.32 0 2.64 0 4 0 C4 1.65 4 3.3 4 5 C2.35 4.67 0.7 4.34 -1 4 C-0.67 2.68 -0.34 1.36 0 0 Z " fill="#1F1F1F" transform="translate(209,154)"/>
<path d="M0 0 C1.32 0 2.64 0 4 0 C4 1.65 4 3.3 4 5 C2.35 4.67 0.7 4.34 -1 4 C-0.67 2.68 -0.34 1.36 0 0 Z " fill="#1A1A1A" transform="translate(209,70)"/>
<path d="M0 0 C1.98 0.495 1.98 0.495 4 1 C4 2.32 4 3.64 4 5 C2.35 5 0.7 5 -1 5 C-0.67 3.35 -0.34 1.7 0 0 Z " fill="#202020" transform="translate(252,47)"/>
</svg>
