<?xml version="1.0" standalone="no"?>
<!DOCTYPE svg PUBLIC "-//W3C//DTD SVG 20010904//EN"
 "http://www.w3.org/TR/2001/REC-SVG-20010904/DTD/svg10.dtd">
<svg version="1.0" xmlns="http://www.w3.org/2000/svg"
 width="300.000000pt" height="171.000000pt" viewBox="0 0 300.000000 171.000000"
 preserveAspectRatio="xMidYMid meet">
<metadata>
Created by potrace 1.10, written by Peter Selinger 2001-2011
</metadata>
<g transform="translate(0.000000,171.000000) scale(0.100000,-0.100000)"
fill="#000000" stroke="none">
<path d="M1317 1402 c-22 -24 -21 -45 1 -65 37 -34 82 -15 82 33 0 49 -51 68
-83 32z"/>
<path d="M1201 1366 c-16 -19 -11 -46 12 -60 25 -16 52 4 52 40 0 24 -5 30
-26 32 -14 2 -31 -4 -38 -12z"/>
<path d="M1440 1361 c-19 -36 14 -70 53 -55 22 8 31 42 17 59 -18 21 -57 18
-70 -4z"/>
<path d="M1607 1373 c-13 -12 -7 -41 10 -47 21 -8 48 17 40 38 -6 16 -38 22
-50 9z"/>
<path d="M1121 1297 c-17 -21 -3 -49 23 -45 15 2 21 10 21 28 0 28 -26 38 -44
17z"/>
<path d="M1541 1297 c-17 -21 -3 -49 23 -45 15 2 21 10 21 28 0 28 -26 38 -44
17z"/>
<path d="M1666 1295 c-20 -21 -20 -39 0 -59 20 -21 30 -20 55 5 18 18 19 23 6
42 -18 28 -40 32 -61 12z"/>
<path d="M1200 1235 c-17 -20 -5 -45 20 -45 11 0 23 7 26 15 6 15 -11 45 -26
45 -4 0 -13 -7 -20 -15z"/>
<path d="M1590 1205 c0 -8 9 -15 20 -15 11 0 20 7 20 15 0 8 -9 15 -20 15 -11
0 -20 -7 -20 -15z"/>
<path d="M1692 1184 c-27 -18 -29 -55 -4 -77 24 -22 45 -21 65 1 23 26 21 58
-5 76 -12 9 -25 16 -28 16 -3 0 -16 -7 -28 -16z"/>
<path d="M1120 1155 c-10 -12 -10 -21 -2 -40 14 -31 56 -34 72 -5 24 44 -38
83 -70 45z"/>
<path d="M1096 1044 c-9 -8 -16 -26 -16 -38 0 -54 77 -63 95 -12 8 24 6 31
-14 47 -28 23 -45 24 -65 3z"/>
<path d="M1662 1048 c-30 -30 -1 -75 43 -64 22 6 26 11 23 39 -2 26 -8 33 -28
35 -14 2 -31 -3 -38 -10z"/>
<path d="M1223 954 c-7 -19 2 -28 22 -21 19 8 19 23 0 31 -9 3 -18 -1 -22 -10z"/>
<path d="M1741 956 c-12 -14 -5 -26 16 -26 15 0 18 26 4 34 -5 3 -14 0 -20 -8z"/>
<path d="M1607 953 c-13 -12 -7 -41 10 -47 21 -8 48 17 40 38 -6 16 -38 22
-50 9z"/>
<path d="M1124 909 c-19 -22 -13 -43 19 -63 12 -8 21 -5 36 8 26 23 26 38 3
59 -24 22 -35 21 -58 -4z"/>
<path d="M1257 886 c-3 -8 0 -22 7 -32 18 -24 46 -11 46 21 0 20 -5 25 -24 25
-13 0 -26 -6 -29 -14z"/>
<path d="M1676 883 c-8 -21 17 -48 38 -40 9 4 16 18 16 32 0 20 -5 25 -24 25
-13 0 -27 -8 -30 -17z"/>
<path d="M1342 838 c-29 -29 -2 -72 40 -66 42 6 32 78 -11 78 -9 0 -22 -5 -29
-12z"/>
<path d="M1580 830 c-24 -44 38 -83 70 -45 10 12 10 21 2 40 -14 31 -56 34
-72 5z"/>
<path d="M1202 821 c-21 -13 -10 -46 16 -49 27 -4 40 22 22 43 -14 17 -20 18
-38 6z"/>
<path d="M1454 805 c-15 -23 -15 -27 0 -50 10 -15 26 -25 41 -25 15 0 31 10
41 25 15 23 15 27 0 50 -10 15 -26 25 -41 25 -15 0 -31 -10 -41 -25z"/>
<path d="M1281 756 c-12 -14 -5 -26 16 -26 15 0 18 26 4 34 -5 3 -14 0 -20 -8z"/>
<path d="M2280 450 c0 -163 1 -170 20 -170 19 0 20 7 20 170 0 163 -1 170 -20
170 -19 0 -20 -7 -20 -170z"/>
<path d="M525 435 c0 -154 0 -155 23 -155 20 0 22 4 22 60 l0 60 54 0 c86 0
130 51 106 124 -15 47 -55 66 -137 66 l-68 0 0 -155z m146 105 c23 -13 26 -71
5 -89 -7 -6 -34 -14 -60 -17 l-46 -5 0 61 0 60 41 0 c22 0 49 -5 60 -10z"/>
<path d="M1780 435 c0 -148 1 -155 20 -155 18 0 20 7 20 60 l0 60 54 0 c88 0
135 59 106 131 -18 42 -57 59 -135 59 l-65 0 0 -155z m148 103 c39 -49 12 -95
-60 -104 l-48 -5 0 61 0 60 49 0 c27 0 53 -6 59 -12z"/>
<path d="M828 484 c-36 -19 -48 -43 -48 -97 0 -30 7 -53 21 -71 38 -49 124
-51 162 -4 18 21 18 22 0 29 -11 4 -24 0 -36 -12 -34 -36 -92 -19 -110 34 -6
15 2 17 82 17 l89 0 -9 38 c-16 71 -86 102 -151 66z m90 -30 c41 -29 28 -44
-38 -44 -46 0 -60 3 -60 14 0 17 38 46 60 46 9 0 26 -7 38 -16z"/>
<path d="M1040 390 c0 -103 1 -110 20 -110 18 0 20 7 20 71 0 89 10 109 54
109 42 0 46 -10 46 -106 0 -67 2 -74 20 -74 19 0 20 7 20 90 0 77 -3 93 -20
110 -24 24 -67 26 -98 4 -20 -14 -22 -14 -22 0 0 9 -9 16 -20 16 -19 0 -20 -7
-20 -110z"/>
<path d="M1290 390 l0 -110 25 0 c25 0 26 1 24 75 -2 87 9 108 55 103 l31 -3
3 -87 c3 -87 3 -88 29 -88 l25 0 -4 91 c-4 81 -7 94 -27 110 -28 23 -69 24
-99 3 -20 -14 -22 -14 -22 0 0 9 -9 16 -20 16 -19 0 -20 -7 -20 -110z"/>
<path d="M1555 392 l45 -109 -20 -44 c-26 -57 -26 -70 1 -61 15 6 36 48 80
157 32 83 59 153 59 158 0 4 -9 7 -19 7 -15 0 -26 -17 -48 -80 -15 -44 -30
-80 -33 -80 -3 0 -17 35 -32 78 -22 67 -29 77 -52 80 l-25 3 44 -109z"/>
<path d="M2055 475 c-14 -13 -25 -29 -25 -35 0 -18 35 -11 53 11 22 25 55 22
74 -8 17 -25 19 -24 -54 -43 -23 -6 -49 -17 -58 -26 -20 -20 -19 -68 1 -85 23
-19 80 -16 102 4 17 16 20 16 25 2 8 -19 57 -20 57 -1 0 8 -7 16 -15 20 -11 4
-15 22 -15 76 0 57 -4 74 -20 90 -29 29 -94 27 -125 -5z m115 -100 c0 -20 -28
-57 -47 -61 -57 -15 -77 38 -20 55 36 10 67 13 67 6z"/>
</g>
</svg>
