<?xml version="1.0" encoding="UTF-8"?>
<svg version="1.1" xmlns="http://www.w3.org/2000/svg" width="216" height="209">
<path d="M0 0 C71.28 0 142.56 0 216 0 C216 68.97 216 137.94 216 209 C144.72 209 73.44 209 0 209 C0 140.03 0 71.06 0 0 Z " fill="#121212" transform="translate(0,0)"/>
<path d="M0 0 C2.92937654 1.81310142 5.43647949 3.87295899 7 7 C7.41204834 11.63554388 6.87454146 14.30416098 4 18 C0.78446554 20.32849047 -2.11021377 20.54457007 -6 20 C-8.92483867 18.17452064 -11.43429205 16.13141589 -13 13 C-13.40417552 10.03604618 -13.56382171 7.91095074 -11.953125 5.30859375 C-8.19027184 0.71569946 -5.93582549 -0.68490294 0 0 Z " fill="#B5BBBE" transform="translate(95,40)"/>
<path d="M0 0 C3.66836289 0.28218176 5.36413765 1.0054404 8.25 3.25 C10.57826375 6.46522137 10.64711181 9.35830425 10.25 13.25 C8.90346479 16.36829207 7.90294817 17.85097612 5 19.625 C1.34353255 20.45601533 -1.13096294 20.23701011 -4.75 19.25 C-7.26666056 17.12051798 -8.46851452 15.5644841 -9.1640625 12.31640625 C-9.46572876 8.11689434 -9.08887746 6.65839079 -6.3125 3.3125 C-5.466875 2.631875 -4.62125 1.95125 -3.75 1.25 C-2.75 0.25 -2.75 0.25 0 0 Z " fill="#B7BDC1" transform="translate(161.75,82.75)"/>
<path d="M0 0 C2.9120743 0.72539035 4.72038418 2.14526537 6.4140625 4.62109375 C7.87866305 8.36650453 7.44417389 11.79118083 6.1640625 15.5390625 C3.43684384 18.82776735 1.88338968 19.43630147 -2.3359375 20.0390625 C-6.37355083 19.4622606 -7.98243967 18.39256033 -10.8359375 15.5390625 C-12.45301708 12.30490334 -12.40416126 9.03530985 -11.8359375 5.5390625 C-8.71029388 0.69935626 -5.52716763 -0.3512247 0 0 Z " fill="#B9BFC3" transform="translate(121.8359375,152.4609375)"/>
<path d="M0 0 C3.03978021 0.68164768 4.80055419 2.23591662 6.93359375 4.43359375 C8.36663439 7.29967504 8.2400353 9.24660158 7.93359375 12.43359375 C4.77569901 18.01254112 4.77569901 18.01254112 1.93359375 19.43359375 C-2.46575106 19.94121046 -4.60866011 19.69159612 -8.50390625 17.49609375 C-11.49864523 13.91701546 -11.91955396 12.13854882 -11.578125 7.59375 C-10.11856088 1.43238391 -5.77821305 -0.36045563 0 0 Z " fill="#B9BFC3" transform="translate(51.06640625,109.56640625)"/>
<path d="M0 0 C2.5 1.625 2.5 1.625 4 4 C4 7.89442816 3.54017686 10.18973471 1.375 13.4375 C-1.98693999 15.64930263 -4.05974542 15.6332552 -8 15 C-11.21279089 12.28148463 -11.90640581 10.59276322 -12.5625 6.4375 C-12 3 -12 3 -9.9375 0.5 C-6.0725552 -1.47358883 -4.13162753 -1.20192801 0 0 Z " fill="#B7BCC0" transform="translate(100,150)"/>
<path d="M0 0 C3.32274404 2.45594125 4.77618008 3.9256644 5.625 8 C4.77618008 12.0743356 3.32274404 13.54405875 0 16 C-3 16.6875 -3 16.6875 -6 16 C-8.43733864 13.87381097 -9.66903057 12.79625688 -11 10 C-11.06577694 6.11916068 -10.88674474 4.01811433 -8.3125 1.0625 C-5.2135552 -0.3613395 -3.37817188 -0.55153827 0 0 Z " fill="#B6BCBF" transform="translate(160,109)"/>
<path d="M0 0 C4.0743356 0.84881992 5.54405875 2.30225596 8 5.625 C8.625 8.625 8.625 8.625 8 11.625 C5.50915752 14.99496335 4.11411135 16.44310427 -0.0625 17.125 C-3.42877241 16.55201746 -4.79003464 16.2442182 -7 13.625 C-7.96988093 10.89277446 -8.32575603 8.5118724 -8 5.625 C-5.60540961 2.14195943 -4.14822958 0.8642145 0 0 Z " fill="#B6BCC0" transform="translate(157,61.375)"/>
<path d="M0 0 C2.875 1.5625 2.875 1.5625 5 4 C5.80740332 8.44071826 5.50331836 10.26790056 2.9375 14 C0 16 0 16 -3.5625 16.125 C-7.66488116 14.78240253 -9.00630003 13.82125828 -11 10 C-11 6.1862249 -10.84985071 3.97575452 -8.3125 1.0625 C-5.24716836 -0.34589562 -3.34404315 -0.47772045 0 0 Z " fill="#B6BCC0" transform="translate(57,88)"/>
<path d="M0 0 C4.07390532 1.33327811 5.42613937 2.35369882 7.4375 6.125 C7.4375 9.7198199 6.83744536 11.54046447 4.8125 14.5 C1.4839384 16.77743688 -0.6133385 16.68916593 -4.5625 16.125 C-7 14.5625 -7 14.5625 -8.5625 12.125 C-9.28718526 7.69636786 -9.05704049 5.84433162 -6.5 2.125 C-3.5625 0.125 -3.5625 0.125 0 0 Z " fill="#B6BCC0" transform="translate(116.5625,46.875)"/>
<path d="M0 0 C3.31469389 1.22499557 4.84046741 2.16720362 6.875 5.0625 C7.4375 8 7.4375 8 6.875 11.0625 C4.24288535 14.73150829 2.78645674 15.90259531 -1.6875 16.6875 C-5.125 16.0625 -5.125 16.0625 -7.5625 13.9375 C-9.42661765 10.50752353 -9.92400935 8.89774486 -9.125 5.0625 C-6.16174116 1.74647225 -4.52716343 0.09054327 0 0 Z " fill="#B8BDC1" transform="translate(70.125,46.9375)"/>
<path d="M0 0 C2.4375 1.5625 2.4375 1.5625 4 4 C4.55802097 7.90614682 4.58392818 10.05111671 2.5 13.4375 C-0.53037069 15.33148168 -2.55830934 15.64334247 -6.08984375 15.4453125 C-8 15 -8 15 -10.5625 12.9375 C-12.44610971 9.08838451 -12.207644 7.07579849 -11 3 C-7.92160879 -0.67038952 -4.56677188 -0.57084649 0 0 Z " fill="#B7BDC1" transform="translate(58,135)"/>
<path d="M0 0 C1.9375 1.0625 1.9375 1.0625 3 3 C3.75471698 9.79245283 3.75471698 9.79245283 1.4375 13.5 C-1.94888329 15.58392818 -4.09385318 15.55802097 -8 15 C-10.4375 13.5 -10.4375 13.5 -12 11 C-12.61014545 8.1910285 -12.65360928 5.80363979 -12 3 C-8.3655827 -1.51548816 -5.40521016 -1.50144727 0 0 Z " fill="#B9BFC3" transform="translate(147,150)"/>
<path d="M0 0 C2 2 2 2 2.3125 4.9375 C2 8 2 8 0.8125 9.875 C-1.65507108 11.40659584 -3.14519831 11.42822025 -6 11 C-7.875 9.9375 -7.875 9.9375 -9 8 C-8.8125 4.375 -8.8125 4.375 -8 1 C-5.23749964 -0.38125018 -3.05268901 -0.19079306 0 0 Z " fill="#B4BABD" transform="translate(70,154)"/>
<path d="M0 0 C2 2 2 2 2.3125 4.9375 C2 8 2 8 0.8125 9.875 C-1.65507108 11.40659584 -3.14519831 11.42822025 -6 11 C-7.875 9.9375 -7.875 9.9375 -9 8 C-8.8125 4.375 -8.8125 4.375 -8 1 C-5.23749964 -0.38125018 -3.05268901 -0.19079306 0 0 Z " fill="#B4BABD" transform="translate(148,48)"/>
<path d="M0 0 C2.9375 0.8125 2.9375 0.8125 4.9375 2.8125 C5.29773622 5.62234248 5.32082602 7.19491919 3.8125 9.625 C1.10304166 11.34099028 -0.92545684 11.146228 -4.0625 10.8125 C-6.0625 8.8125 -6.0625 8.8125 -6.375 5.875 C-6.0625 2.8125 -6.0625 2.8125 -4.9375 0.875 C-3.0625 -0.1875 -3.0625 -0.1875 0 0 Z " fill="#B6BCC0" transform="translate(160.0625,139.1875)"/>
<path d="M0 0 C2.9375 0.8125 2.9375 0.8125 4.9375 3.8125 C4.6133631 7.13490324 4.32973697 8.42026303 1.9375 10.8125 C-1.0625 11.0625 -1.0625 11.0625 -4.0625 10.8125 C-6.0625 8.8125 -6.0625 8.8125 -6.375 5.3125 C-6.271875 4.1575 -6.16875 3.0025 -6.0625 1.8125 C-3.0625 -0.1875 -3.0625 -0.1875 0 0 Z " fill="#B6BCC0" transform="translate(80.0625,139.1875)"/>
<path d="M0 0 C1 1 1 1 1.25 3.875 C1 7 1 7 -0.1875 8.875 C-2.65507108 10.40659584 -4.14519831 10.42822025 -7 10 C-8.8125 8.8125 -8.8125 8.8125 -10 7 C-10.42674516 4.15503228 -10.36066991 2.63647631 -8.9375 0.125 C-5.85798867 -1.66310335 -3.35666727 -0.74592606 0 0 Z " fill="#B4BABE" transform="translate(149,129)"/>
<path d="M0 0 C2 2 2 2 2.3125 4.9375 C2 8 2 8 0.875 9.9375 C-1 11 -1 11 -4.0625 10.875 C-7 10 -7 10 -9 7 C-8.75 3.875 -8.75 3.875 -8 1 C-5.23749964 -0.38125018 -3.05268901 -0.19079306 0 0 Z " fill="#B3B9BD" transform="translate(70,74)"/>
<path d="M0 0 C2.9375 0.875 2.9375 0.875 4.9375 3.875 C4.6875 7 4.6875 7 3.9375 9.875 C1.17499964 11.25625018 -1.00981099 11.06579306 -4.0625 10.875 C-6.0625 8.875 -6.0625 8.875 -6.375 5.9375 C-6.0625 2.875 -6.0625 2.875 -4.9375 0.9375 C-3.0625 -0.125 -3.0625 -0.125 0 0 Z " fill="#B4BABE" transform="translate(133.0625,62.125)"/>
<path d="M0 0 C2.9375 0.875 2.9375 0.875 4.9375 3.875 C4.6133631 7.19740324 4.32973697 8.48276303 1.9375 10.875 C-1.0625 11.125 -1.0625 11.125 -4.0625 10.875 C-6.0625 8.875 -6.0625 8.875 -6.375 5.9375 C-6.0625 2.875 -6.0625 2.875 -4.9375 0.9375 C-3.0625 -0.125 -3.0625 -0.125 0 0 Z " fill="#B5BABE" transform="translate(53.0625,62.125)"/>
<path d="M0 0 C2.125 0.375 2.125 0.375 4 1 C4.625 2.875 4.625 2.875 5 5 C4.34 5.66 3.68 6.32 3 7 C0.875 6.625 0.875 6.625 -1 6 C-1.625 4.125 -1.625 4.125 -2 2 C-1.34 1.34 -0.68 0.68 0 0 Z " fill="#A7ADB0" transform="translate(41,78)"/>
<path d="M0 0 C2.125 0.375 2.125 0.375 4 1 C4.625 2.875 4.625 2.875 5 5 C4.34 5.66 3.68 6.32 3 7 C0.875 6.625 0.875 6.625 -1 6 C-1.625 4.125 -1.625 4.125 -2 2 C-1.34 1.34 -0.68 0.68 0 0 Z " fill="#A7ACAF" transform="translate(129,40)"/>
<path d="M0 0 C2.0625 0.4375 2.0625 0.4375 4 1 C4 2.65 4 4.3 4 6 C2.125 6.625 2.125 6.625 0 7 C-0.66 6.34 -1.32 5.68 -2 5 C-1.46428571 1.46428571 -1.46428571 1.46428571 0 0 Z " fill="#ADB3B7" transform="translate(140,78)"/>
<path d="M0 0 C1.67542976 0.28604898 3.34385343 0.61781233 5 1 C4.67 2.65 4.34 4.3 4 6 C2.35 6 0.7 6 -1 6 C-1.042721 4.33388095 -1.04063832 2.66617115 -1 1 C-0.67 0.67 -0.34 0.34 0 0 Z " fill="#B0B6BA" transform="translate(129,139)"/>
<path d="M0 0 C1.65 0 3.3 0 5 0 C5.33 1.65 5.66 3.3 6 5 C4.34385343 5.38218767 2.67542976 5.71395102 1 6 C0 5 0 5 -0.0625 2.4375 C-0.041875 1.633125 -0.02125 0.82875 0 0 Z " fill="#B4B9BD" transform="translate(166,128)"/>
<path d="M0 0 C1.67542976 0.28604898 3.34385343 0.61781233 5 1 C4.67 2.65 4.34 4.3 4 6 C2.35 6 0.7 6 -1 6 C-1.042721 4.33388095 -1.04063832 2.66617115 -1 1 C-0.67 0.67 -0.34 0.34 0 0 Z " fill="#B3B9BD" transform="translate(79,67)"/>
<path d="M0 0 C1.65 0.33 3.3 0.66 5 1 C4.67 2.65 4.34 4.3 4 6 C2.35 5.67 0.7 5.34 -1 5 C-0.67 3.35 -0.34 1.7 0 0 Z " fill="#B7BDC1" transform="translate(68,128)"/>
<path d="M0 0 C1.65 0 3.3 0 5 0 C5.625 1.875 5.625 1.875 6 4 C5.34 4.66 4.68 5.32 4 6 C1.875 5.625 1.875 5.625 0 5 C0 3.35 0 1.7 0 0 Z " fill="#B5BABE" transform="translate(78,166)"/>
</svg>
